<mxfile host="app.diagrams.net" modified="2023-06-30T00:54:17.965Z" agent="Mozilla/5.0 (Windows NT 10.0; Win64; x64) AppleWebKit/537.36 (KHTML, like Gecko) Chrome/114.0.0.0 Safari/537.36" etag="3pHRGDVhPS6hWXU4PHey" version="21.5.2" type="github">
  <diagram name="Página-1" id="6CJLhnXPKIy9RIlM2_i4">
    <mxGraphModel dx="2062" dy="1843" grid="1" gridSize="10" guides="1" tooltips="1" connect="1" arrows="1" fold="1" page="1" pageScale="1" pageWidth="827" pageHeight="1169" math="0" shadow="0">
      <root>
        <mxCell id="0" />
        <mxCell id="1" parent="0" />
        <mxCell id="zJWUU8WAKtDZtC-Ve3RA-1" value="Usuário" style="shape=umlActor;verticalLabelPosition=bottom;verticalAlign=top;html=1;outlineConnect=0;" parent="1" vertex="1">
          <mxGeometry x="190" y="170" width="30" height="60" as="geometry" />
        </mxCell>
        <mxCell id="zJWUU8WAKtDZtC-Ve3RA-2" value="Cadastrar Cliente" style="ellipse;whiteSpace=wrap;html=1;" parent="1" vertex="1">
          <mxGeometry x="110" y="-130" width="70" height="50" as="geometry" />
        </mxCell>
        <mxCell id="zJWUU8WAKtDZtC-Ve3RA-4" value="Gerente" style="shape=umlActor;verticalLabelPosition=bottom;verticalAlign=top;html=1;outlineConnect=0;" parent="1" vertex="1">
          <mxGeometry x="190" y="381" width="30" height="60" as="geometry" />
        </mxCell>
        <mxCell id="zJWUU8WAKtDZtC-Ve3RA-5" value="Atendente" style="shape=umlActor;verticalLabelPosition=bottom;verticalAlign=top;html=1;outlineConnect=0;" parent="1" vertex="1">
          <mxGeometry x="40" y="170" width="30" height="60" as="geometry" />
        </mxCell>
        <mxCell id="zJWUU8WAKtDZtC-Ve3RA-8" value="Alterar Cliente" style="ellipse;whiteSpace=wrap;html=1;" parent="1" vertex="1">
          <mxGeometry x="230" y="-110" width="70" height="50" as="geometry" />
        </mxCell>
        <mxCell id="zJWUU8WAKtDZtC-Ve3RA-9" value="Buscar Cliente" style="ellipse;whiteSpace=wrap;html=1;" parent="1" vertex="1">
          <mxGeometry x="170" y="-50" width="60" height="60" as="geometry" />
        </mxCell>
        <mxCell id="zJWUU8WAKtDZtC-Ve3RA-10" value="Excluir Cliente" style="ellipse;whiteSpace=wrap;html=1;" parent="1" vertex="1">
          <mxGeometry x="-40" y="610" width="70" height="50" as="geometry" />
        </mxCell>
        <mxCell id="zJWUU8WAKtDZtC-Ve3RA-11" value="Cadatrar Animal" style="ellipse;whiteSpace=wrap;html=1;" parent="1" vertex="1">
          <mxGeometry x="430" y="-20" width="80" height="50" as="geometry" />
        </mxCell>
        <mxCell id="zJWUU8WAKtDZtC-Ve3RA-12" value="Alterar Animal" style="ellipse;whiteSpace=wrap;html=1;" parent="1" vertex="1">
          <mxGeometry x="340" y="30" width="60" height="60" as="geometry" />
        </mxCell>
        <mxCell id="zJWUU8WAKtDZtC-Ve3RA-13" value="Buscar Animal" style="ellipse;whiteSpace=wrap;html=1;" parent="1" vertex="1">
          <mxGeometry x="440" y="60" width="70" height="50" as="geometry" />
        </mxCell>
        <mxCell id="zJWUU8WAKtDZtC-Ve3RA-14" value="Excluir Animal" style="ellipse;whiteSpace=wrap;html=1;" parent="1" vertex="1">
          <mxGeometry x="-20" y="540" width="60" height="50" as="geometry" />
        </mxCell>
        <mxCell id="zJWUU8WAKtDZtC-Ve3RA-15" value="Excluir Profissional" style="ellipse;whiteSpace=wrap;html=1;" parent="1" vertex="1">
          <mxGeometry x="380" y="730" width="90" height="60" as="geometry" />
        </mxCell>
        <mxCell id="zJWUU8WAKtDZtC-Ve3RA-16" value="Excluir Usuário" style="ellipse;whiteSpace=wrap;html=1;" parent="1" vertex="1">
          <mxGeometry x="10" y="680" width="80" height="50" as="geometry" />
        </mxCell>
        <mxCell id="zJWUU8WAKtDZtC-Ve3RA-17" value="Excluir Permissão" style="ellipse;whiteSpace=wrap;html=1;" parent="1" vertex="1">
          <mxGeometry x="500" y="280" width="80" height="60" as="geometry" />
        </mxCell>
        <mxCell id="zJWUU8WAKtDZtC-Ve3RA-18" value="Excluir Função" style="ellipse;whiteSpace=wrap;html=1;" parent="1" vertex="1">
          <mxGeometry x="570" y="470" width="80" height="60" as="geometry" />
        </mxCell>
        <mxCell id="zJWUU8WAKtDZtC-Ve3RA-19" value="Alterar Permissão" style="ellipse;whiteSpace=wrap;html=1;" parent="1" vertex="1">
          <mxGeometry x="413" y="260" width="70" height="50" as="geometry" />
        </mxCell>
        <mxCell id="zJWUU8WAKtDZtC-Ve3RA-20" value="Buscar Permissão" style="ellipse;whiteSpace=wrap;html=1;" parent="1" vertex="1">
          <mxGeometry x="570" y="-70" width="80" height="60" as="geometry" />
        </mxCell>
        <mxCell id="zJWUU8WAKtDZtC-Ve3RA-21" value="Cadastrar&amp;nbsp; Permissão" style="ellipse;whiteSpace=wrap;html=1;" parent="1" vertex="1">
          <mxGeometry x="310" y="250" width="80" height="50" as="geometry" />
        </mxCell>
        <mxCell id="zJWUU8WAKtDZtC-Ve3RA-22" value="Alterar Função" style="ellipse;whiteSpace=wrap;html=1;" parent="1" vertex="1">
          <mxGeometry x="510" y="520" width="70" height="40" as="geometry" />
        </mxCell>
        <mxCell id="zJWUU8WAKtDZtC-Ve3RA-23" value="Buscar Função" style="ellipse;whiteSpace=wrap;html=1;" parent="1" vertex="1">
          <mxGeometry x="500" y="-160" width="70" height="60" as="geometry" />
        </mxCell>
        <mxCell id="zJWUU8WAKtDZtC-Ve3RA-24" value="Cadastrar Função" style="ellipse;whiteSpace=wrap;html=1;" parent="1" vertex="1">
          <mxGeometry x="505" y="436" width="65" height="44" as="geometry" />
        </mxCell>
        <mxCell id="zJWUU8WAKtDZtC-Ve3RA-25" value="Alterar Profissional" style="ellipse;whiteSpace=wrap;html=1;" parent="1" vertex="1">
          <mxGeometry x="250" y="715" width="70" height="40" as="geometry" />
        </mxCell>
        <mxCell id="zJWUU8WAKtDZtC-Ve3RA-26" value="Buscar Profissional" style="ellipse;whiteSpace=wrap;html=1;" parent="1" vertex="1">
          <mxGeometry x="640" y="10" width="90" height="40" as="geometry" />
        </mxCell>
        <mxCell id="zJWUU8WAKtDZtC-Ve3RA-27" value="Cadastrar Profissional" style="ellipse;whiteSpace=wrap;html=1;" parent="1" vertex="1">
          <mxGeometry x="300" y="770" width="80" height="60" as="geometry" />
        </mxCell>
        <mxCell id="zJWUU8WAKtDZtC-Ve3RA-87" value="Cadastrar Raça" style="ellipse;whiteSpace=wrap;html=1;" parent="1" vertex="1">
          <mxGeometry x="730" y="-70" width="70" height="50" as="geometry" />
        </mxCell>
        <mxCell id="zJWUU8WAKtDZtC-Ve3RA-88" value="Alterar Raça" style="ellipse;whiteSpace=wrap;html=1;" parent="1" vertex="1">
          <mxGeometry x="810" y="-150" width="60" height="60" as="geometry" />
        </mxCell>
        <mxCell id="zJWUU8WAKtDZtC-Ve3RA-89" value="Buscar Raça" style="ellipse;whiteSpace=wrap;html=1;" parent="1" vertex="1">
          <mxGeometry x="870" y="-40" width="70" height="50" as="geometry" />
        </mxCell>
        <mxCell id="QECiyln3LwhVazJnVvSY-11" value="Buscar Agendamento" style="ellipse;whiteSpace=wrap;html=1;" parent="1" vertex="1">
          <mxGeometry x="800" y="423" width="80" height="57" as="geometry" />
        </mxCell>
        <mxCell id="QECiyln3LwhVazJnVvSY-13" value="Cadastrar Agendamento" style="ellipse;whiteSpace=wrap;html=1;" parent="1" vertex="1">
          <mxGeometry x="700" y="300" width="70" height="60" as="geometry" />
        </mxCell>
        <mxCell id="QECiyln3LwhVazJnVvSY-14" value="Alterar Agendamento" style="ellipse;whiteSpace=wrap;html=1;" parent="1" vertex="1">
          <mxGeometry x="920" y="300" width="80" height="50" as="geometry" />
        </mxCell>
        <mxCell id="QECiyln3LwhVazJnVvSY-15" value="Cancelar Agendamento" style="ellipse;whiteSpace=wrap;html=1;" parent="1" vertex="1">
          <mxGeometry x="1020" y="386" width="80" height="50" as="geometry" />
        </mxCell>
        <mxCell id="QECiyln3LwhVazJnVvSY-28" value="Cadastrar Serviço" style="ellipse;whiteSpace=wrap;html=1;" parent="1" vertex="1">
          <mxGeometry x="690" y="742" width="70" height="55" as="geometry" />
        </mxCell>
        <mxCell id="QECiyln3LwhVazJnVvSY-29" value="Buscar Serviço" style="ellipse;whiteSpace=wrap;html=1;" parent="1" vertex="1">
          <mxGeometry x="1030" y="-45" width="80" height="60" as="geometry" />
        </mxCell>
        <mxCell id="QECiyln3LwhVazJnVvSY-31" value="Alterar Serviço" style="ellipse;whiteSpace=wrap;html=1;" parent="1" vertex="1">
          <mxGeometry x="650" y="577" width="70" height="55" as="geometry" />
        </mxCell>
        <mxCell id="QECiyln3LwhVazJnVvSY-32" value="Excluir Serviço" style="ellipse;whiteSpace=wrap;html=1;" parent="1" vertex="1">
          <mxGeometry x="770" y="687" width="70" height="55" as="geometry" />
        </mxCell>
        <mxCell id="QECiyln3LwhVazJnVvSY-33" value="Cancelar Serviço" style="ellipse;whiteSpace=wrap;html=1;" parent="1" vertex="1">
          <mxGeometry x="690" y="632" width="80" height="55" as="geometry" />
        </mxCell>
      </root>
    </mxGraphModel>
  </diagram>
</mxfile>
